<svg id="svg" version="1.1" width="400" height="400" viewBox="0 0 400 400" xmlns="http://www.w3.org/2000/svg" xmlns:xlink="http://www.w3.org/1999/xlink"><g id="svgg"><path id="path0" d="M114.000 109.941 C 114.000 110.349,114.459 116.064,115.020 122.641 C 115.581 129.218,116.218 136.760,116.436 139.400 C 116.654 142.040,117.014 146.270,117.236 148.800 C 117.708 154.169,118.235 160.270,118.807 167.000 C 119.032 169.640,119.392 173.825,119.608 176.300 C 120.517 186.736,120.837 190.447,121.200 194.800 C 121.411 197.330,121.757 201.470,121.969 204.000 C 122.181 206.530,122.477 209.609,122.627 210.843 L 122.900 213.086 180.350 213.352 C 211.948 213.499,239.398 213.729,241.351 213.865 L 244.902 214.111 244.618 216.556 C 244.461 217.900,244.168 220.350,243.968 222.000 C 243.767 223.650,243.412 226.620,243.178 228.600 C 242.945 230.580,242.589 233.550,242.387 235.200 C 242.186 236.850,241.827 239.820,241.589 241.800 C 241.351 243.780,240.982 246.840,240.769 248.600 C 240.556 250.360,240.226 253.349,240.036 255.241 C 239.621 259.381,239.232 260.205,237.514 260.585 C 235.301 261.075,229.612 262.276,225.400 263.142 C 219.341 264.388,212.235 265.882,208.000 266.801 C 200.059 268.523,200.230 268.518,194.400 267.204 C 193.630 267.030,190.030 266.230,186.400 265.427 C 182.770 264.623,178.630 263.695,177.200 263.365 C 175.770 263.035,173.835 262.593,172.900 262.382 C 171.965 262.172,170.345 261.807,169.300 261.571 C 168.255 261.335,166.479 260.876,165.353 260.551 L 163.306 259.959 163.057 257.479 C 162.808 255.009,162.307 250.676,161.567 244.600 C 160.882 238.971,160.382 234.663,160.140 232.300 L 159.904 230.000 142.099 230.000 L 124.295 230.000 124.554 233.100 C 124.697 234.805,124.987 238.270,125.199 240.800 C 125.564 245.165,125.862 248.636,126.779 259.200 C 126.999 261.730,127.354 265.870,127.570 268.400 C 128.074 274.324,128.332 277.174,128.861 282.684 L 129.292 287.168 130.546 287.546 C 131.236 287.754,132.250 288.042,132.800 288.186 C 133.350 288.330,135.150 288.811,136.800 289.255 C 139.763 290.053,141.071 290.389,144.200 291.155 C 145.080 291.371,146.520 291.751,147.400 292.000 C 149.052 292.468,150.636 292.878,153.400 293.555 C 154.280 293.771,155.720 294.151,156.600 294.400 C 157.480 294.649,158.875 295.021,159.700 295.227 C 160.525 295.432,161.875 295.768,162.700 295.973 C 163.525 296.179,164.920 296.551,165.800 296.800 C 166.680 297.049,168.030 297.403,168.800 297.587 C 170.619 298.020,183.512 301.350,188.400 302.650 C 198.578 305.355,201.405 306.006,201.978 305.777 C 202.320 305.641,205.390 304.812,208.800 303.937 C 214.998 302.346,221.740 300.598,230.400 298.335 C 232.930 297.674,235.630 296.983,236.400 296.798 C 237.170 296.614,239.240 296.075,241.000 295.600 C 242.760 295.125,244.920 294.563,245.800 294.350 C 248.358 293.732,250.085 293.286,251.800 292.800 C 252.680 292.551,254.030 292.193,254.800 292.005 C 255.570 291.817,257.640 291.275,259.400 290.800 C 261.160 290.325,263.230 289.785,264.000 289.600 C 266.433 289.015,271.371 287.727,272.249 287.448 C 273.000 287.209,273.119 286.779,273.341 283.490 C 273.574 280.036,273.800 277.302,274.800 265.800 C 275.781 254.513,276.041 251.506,276.424 247.000 C 276.648 244.360,277.000 240.220,277.206 237.800 C 277.411 235.380,277.764 231.285,277.990 228.700 C 278.994 217.198,279.209 214.718,279.593 210.200 C 280.068 204.609,280.588 198.617,281.205 191.600 C 282.130 181.083,282.244 178.605,281.818 178.306 C 281.588 178.144,252.558 178.009,217.308 178.006 L 153.215 178.000 153.019 177.100 C 152.847 176.312,152.243 168.862,150.761 149.246 C 150.538 146.301,150.450 143.646,150.565 143.346 C 150.741 142.888,161.585 142.800,218.000 142.800 C 271.429 142.800,285.258 142.697,285.384 142.300 C 285.471 142.025,285.838 138.200,286.198 133.800 C 286.558 129.400,287.020 123.910,287.224 121.600 C 287.428 119.290,287.713 115.555,287.858 113.300 L 288.121 109.200 201.060 109.200 C 116.578 109.200,114.000 109.222,114.000 109.941 " stroke="none" fill="#fbfbfa" fill-rule="evenodd"></path><path id="path1" d="M60.088 48.700 C 59.703 49.491,59.715 50.454,60.132 52.200 C 60.289 52.860,60.450 55.065,60.489 57.100 C 60.528 59.135,60.671 60.800,60.806 60.800 C 60.941 60.800,61.098 62.549,61.155 64.686 C 61.212 66.823,61.362 68.739,61.489 68.943 C 61.615 69.148,61.883 71.675,62.083 74.558 C 62.283 77.441,62.615 81.780,62.821 84.200 C 63.027 86.620,63.294 90.400,63.414 92.600 C 63.535 94.800,63.802 96.960,64.007 97.400 C 64.213 97.840,64.477 100.180,64.593 102.600 C 65.157 114.267,65.275 115.826,65.625 116.180 C 65.831 116.389,66.000 118.489,66.000 120.847 C 66.000 123.204,66.171 125.193,66.381 125.267 C 66.590 125.340,66.792 127.248,66.830 129.507 C 66.868 131.766,67.057 133.711,67.249 133.831 C 67.442 133.950,67.600 136.006,67.600 138.400 C 67.600 140.870,67.773 142.860,68.000 143.000 C 68.228 143.141,68.400 145.177,68.400 147.744 C 68.400 150.217,68.568 152.411,68.774 152.620 C 68.980 152.829,69.193 155.025,69.248 157.500 C 69.304 159.975,69.495 162.000,69.674 162.000 C 69.853 162.000,70.000 163.789,70.000 165.976 C 70.000 168.196,70.177 170.062,70.400 170.200 C 70.627 170.340,70.800 172.330,70.800 174.800 C 70.800 177.270,70.973 179.260,71.200 179.400 C 71.427 179.540,71.600 181.530,71.600 184.000 C 71.600 186.470,71.773 188.460,72.000 188.600 C 72.227 188.740,72.400 190.730,72.400 193.200 C 72.400 195.670,72.573 197.660,72.800 197.800 C 73.023 197.938,73.200 199.796,73.200 202.000 C 73.200 204.204,73.377 206.062,73.600 206.200 C 73.831 206.342,74.000 208.471,74.000 211.224 C 74.000 214.141,74.156 216.000,74.400 216.000 C 74.642 216.000,74.800 217.733,74.800 220.400 C 74.800 222.820,74.936 224.800,75.102 224.800 C 75.268 224.800,75.436 226.555,75.474 228.700 C 75.512 230.845,75.645 233.590,75.770 234.800 C 75.895 236.010,76.078 238.307,76.178 239.905 C 76.277 241.503,76.460 242.974,76.584 243.174 C 76.708 243.374,76.830 245.307,76.855 247.469 C 76.881 249.631,77.061 251.707,77.255 252.082 C 77.450 252.457,77.622 254.432,77.638 256.471 C 77.654 258.509,77.818 260.460,78.003 260.806 C 78.329 261.415,78.615 265.094,79.042 274.200 C 79.156 276.620,79.418 278.771,79.625 278.980 C 79.831 279.189,80.000 281.293,80.000 283.656 C 80.000 286.089,80.174 288.060,80.400 288.200 C 80.626 288.339,80.800 290.280,80.800 292.650 C 80.800 294.961,80.971 297.172,81.180 297.563 C 81.389 297.954,81.590 300.279,81.626 302.732 C 81.663 305.195,81.851 307.092,82.046 306.971 C 82.243 306.850,82.400 308.622,82.400 310.953 C 82.400 313.321,82.574 315.261,82.800 315.400 C 83.029 315.541,83.200 317.596,83.200 320.200 C 83.200 322.804,83.371 324.859,83.600 325.000 C 83.825 325.139,84.000 327.049,84.000 329.357 C 84.000 331.617,84.135 333.602,84.300 333.767 C 84.607 334.074,84.660 334.278,84.753 335.500 C 84.813 336.283,86.487 337.200,87.856 337.200 C 88.349 337.200,88.864 337.380,89.000 337.600 C 89.136 337.820,89.766 338.000,90.400 338.000 C 91.034 338.000,91.664 338.180,91.800 338.400 C 91.936 338.620,92.577 338.800,93.224 338.800 C 93.871 338.800,94.400 338.976,94.400 339.192 C 94.400 339.408,94.936 339.522,95.592 339.446 C 96.248 339.369,97.238 339.542,97.792 339.830 C 98.346 340.117,98.800 340.278,98.800 340.186 C 98.800 340.095,99.255 340.193,99.810 340.404 C 101.133 340.907,102.570 341.211,104.900 341.481 C 105.945 341.603,106.800 341.859,106.800 342.051 C 106.800 342.243,107.531 342.400,108.424 342.400 C 109.404 342.400,109.949 342.558,109.800 342.800 C 109.653 343.038,110.129 343.200,110.976 343.200 C 111.759 343.200,112.400 343.380,112.400 343.600 C 112.400 343.820,113.030 344.000,113.800 344.000 C 114.570 344.000,115.200 344.180,115.200 344.400 C 115.200 344.620,115.920 344.800,116.800 344.800 C 117.680 344.800,118.400 344.980,118.400 345.200 C 118.400 345.420,119.120 345.600,120.000 345.600 C 120.880 345.600,121.600 345.780,121.600 346.000 C 121.600 346.220,122.309 346.400,123.176 346.400 C 124.043 346.400,124.864 346.580,125.000 346.800 C 125.136 347.020,125.777 347.200,126.424 347.200 C 127.071 347.200,127.600 347.380,127.600 347.600 C 127.600 347.820,128.140 348.000,128.800 348.000 C 129.460 348.000,130.000 348.143,130.000 348.318 C 130.000 348.493,130.675 348.682,131.499 348.737 C 132.324 348.793,133.170 349.010,133.379 349.219 C 133.589 349.429,134.354 349.600,135.080 349.600 C 135.806 349.600,136.400 349.780,136.400 350.000 C 136.400 350.220,137.120 350.400,138.000 350.400 C 138.880 350.400,139.600 350.580,139.600 350.800 C 139.600 351.020,140.331 351.200,141.224 351.200 C 142.204 351.200,142.749 351.358,142.600 351.600 C 142.450 351.842,143.004 352.000,144.000 352.000 C 144.906 352.000,145.558 352.144,145.449 352.320 C 145.341 352.496,145.906 352.684,146.707 352.738 C 147.507 352.792,148.350 352.985,148.581 353.168 C 148.811 353.350,149.540 353.601,150.200 353.725 C 150.860 353.849,152.210 354.153,153.200 354.400 C 154.190 354.647,155.540 354.951,156.200 355.075 C 156.860 355.199,157.623 355.478,157.895 355.695 C 158.167 355.912,158.633 355.996,158.930 355.882 C 159.227 355.768,159.995 355.914,160.635 356.207 C 162.151 356.899,166.751 358.000,168.126 358.000 C 168.717 358.000,169.200 358.180,169.200 358.400 C 169.200 358.620,169.920 358.800,170.800 358.800 C 171.680 358.800,172.400 358.980,172.400 359.200 C 172.400 359.420,173.120 359.600,174.000 359.600 C 174.880 359.600,175.600 359.780,175.600 360.000 C 175.600 360.220,176.215 360.400,176.967 360.400 C 177.718 360.400,178.393 360.572,178.467 360.782 C 178.540 360.993,179.275 361.210,180.100 361.264 C 180.925 361.319,181.600 361.507,181.600 361.682 C 181.600 361.857,182.219 362.000,182.976 362.000 C 183.733 362.000,184.464 362.180,184.600 362.400 C 184.736 362.620,185.377 362.800,186.024 362.800 C 186.671 362.800,187.200 362.980,187.200 363.200 C 187.200 363.420,188.021 363.600,189.024 363.600 C 190.137 363.600,190.751 363.756,190.600 364.000 C 190.451 364.242,190.996 364.400,191.976 364.400 C 192.869 364.400,193.600 364.580,193.600 364.800 C 193.600 365.020,194.219 365.200,194.976 365.200 C 195.733 365.200,196.464 365.380,196.600 365.600 C 196.736 365.820,197.467 366.000,198.224 366.000 C 198.981 366.000,199.600 366.180,199.600 366.400 C 199.600 366.620,200.230 366.800,201.000 366.800 C 201.770 366.800,202.400 366.620,202.400 366.400 C 202.400 366.180,203.120 366.000,204.000 366.000 C 204.880 366.000,205.600 365.820,205.600 365.600 C 205.600 365.380,206.230 365.200,207.000 365.200 C 207.770 365.200,208.400 365.020,208.400 364.800 C 208.400 364.580,209.019 364.400,209.776 364.400 C 210.533 364.400,211.264 364.220,211.400 364.000 C 211.536 363.780,212.267 363.600,213.024 363.600 C 213.781 363.600,214.400 363.420,214.400 363.200 C 214.400 362.980,214.994 362.800,215.720 362.800 C 216.446 362.800,217.211 362.629,217.421 362.419 C 217.630 362.210,218.465 361.994,219.275 361.939 C 220.085 361.885,220.659 361.696,220.551 361.520 C 220.442 361.344,221.083 361.200,221.976 361.200 C 222.869 361.200,223.600 361.020,223.600 360.800 C 223.600 360.580,224.320 360.400,225.200 360.400 C 226.080 360.400,226.800 360.220,226.800 360.000 C 226.800 359.780,227.340 359.600,228.000 359.600 C 228.690 359.600,229.203 359.388,229.206 359.100 C 229.210 358.767,229.342 358.800,229.600 359.200 C 229.858 359.600,229.990 359.633,229.994 359.300 C 229.998 358.983,230.595 358.800,231.624 358.800 C 232.517 358.800,233.150 358.643,233.032 358.451 C 232.845 358.150,234.618 357.755,237.400 357.479 C 237.840 357.436,238.290 357.301,238.400 357.179 C 238.736 356.808,244.115 355.624,244.469 355.842 C 244.651 355.955,244.800 355.877,244.800 355.669 C 244.800 355.273,246.230 354.896,249.099 354.534 C 250.033 354.416,250.697 354.158,250.575 353.960 C 250.453 353.762,250.983 353.600,251.753 353.600 C 252.523 353.600,253.264 353.420,253.400 353.200 C 253.536 352.980,254.267 352.800,255.024 352.800 C 255.781 352.800,256.400 352.620,256.400 352.400 C 256.400 352.180,257.120 352.000,258.000 352.000 C 258.880 352.000,259.600 351.820,259.600 351.600 C 259.600 351.380,260.320 351.200,261.200 351.200 C 262.080 351.200,262.800 351.020,262.800 350.800 C 262.800 350.580,263.419 350.400,264.176 350.400 C 264.933 350.400,265.664 350.220,265.800 350.000 C 265.936 349.780,266.577 349.600,267.224 349.600 C 267.871 349.600,268.400 349.420,268.400 349.200 C 268.400 348.980,269.019 348.800,269.776 348.800 C 270.533 348.800,271.264 348.620,271.400 348.400 C 271.536 348.180,272.267 348.000,273.024 348.000 C 273.781 348.000,274.400 347.820,274.400 347.600 C 274.400 347.380,275.120 347.200,276.000 347.200 C 276.880 347.200,277.600 347.020,277.600 346.800 C 277.600 346.580,278.320 346.400,279.200 346.400 C 280.080 346.400,280.800 346.220,280.800 346.000 C 280.800 345.780,281.430 345.600,282.200 345.600 C 282.970 345.600,283.600 345.420,283.600 345.200 C 283.600 344.980,284.219 344.800,284.976 344.800 C 285.733 344.800,286.464 344.620,286.600 344.400 C 286.736 344.180,287.366 344.000,288.000 344.000 C 288.634 344.000,289.264 343.820,289.400 343.600 C 289.536 343.380,290.267 343.200,291.024 343.200 C 291.781 343.200,292.400 343.020,292.400 342.800 C 292.400 342.580,293.120 342.400,294.000 342.400 C 294.880 342.400,295.600 342.220,295.600 342.000 C 295.600 341.780,296.290 341.600,297.133 341.600 C 297.977 341.600,298.790 341.477,298.940 341.326 C 299.091 341.176,299.706 341.013,300.307 340.966 C 300.908 340.918,301.971 340.697,302.670 340.476 C 303.368 340.254,304.043 340.177,304.170 340.303 C 304.296 340.430,304.400 340.343,304.400 340.110 C 304.400 339.878,304.985 339.595,305.700 339.481 C 306.415 339.367,307.720 339.059,308.600 338.796 C 309.480 338.533,310.876 338.228,311.703 338.117 C 312.529 338.006,313.305 337.755,313.426 337.558 C 313.548 337.361,314.222 337.194,314.924 337.187 C 317.542 337.161,317.778 336.416,318.244 326.692 C 318.357 324.322,318.578 322.463,318.735 322.560 C 318.892 322.657,319.074 320.727,319.141 318.271 C 319.208 315.816,319.408 313.625,319.587 313.404 C 319.766 313.182,319.942 310.936,319.979 308.413 C 320.016 305.890,320.196 303.640,320.379 303.413 C 320.562 303.186,320.740 301.206,320.774 299.013 C 320.807 296.820,320.964 294.930,321.121 294.813 C 321.278 294.696,321.428 293.880,321.454 293.000 C 321.622 287.348,321.757 285.600,322.026 285.600 C 322.194 285.600,322.339 283.740,322.350 281.467 C 322.360 279.193,322.530 276.898,322.726 276.367 C 322.922 275.835,323.109 273.870,323.141 272.000 C 323.174 270.130,323.302 268.150,323.426 267.600 C 323.550 267.050,323.727 265.250,323.819 263.600 C 323.911 261.950,324.100 259.790,324.239 258.800 C 324.377 257.810,324.555 255.650,324.633 254.000 C 325.141 243.250,325.313 240.959,325.637 240.620 C 325.837 240.411,326.000 238.296,326.000 235.920 C 326.000 233.307,326.158 231.600,326.400 231.600 C 326.644 231.600,326.800 229.733,326.800 226.800 C 326.800 223.867,326.956 222.000,327.200 222.000 C 327.441 222.000,327.600 220.341,327.600 217.824 C 327.600 215.471,327.775 213.539,328.000 213.400 C 328.227 213.260,328.400 211.270,328.400 208.800 C 328.400 206.406,328.558 204.349,328.752 204.230 C 328.946 204.110,329.135 202.074,329.173 199.706 C 329.210 197.338,329.412 195.229,329.621 195.020 C 329.829 194.811,330.000 192.696,330.000 190.320 C 330.000 187.707,330.158 186.000,330.400 186.000 C 330.641 186.000,330.800 184.333,330.800 181.800 C 330.800 179.490,330.950 177.600,331.134 177.600 C 331.318 177.600,331.509 175.485,331.559 172.900 C 331.609 170.315,331.819 168.140,332.025 168.067 C 332.231 167.993,332.400 165.878,332.400 163.367 C 332.400 160.589,332.557 158.800,332.800 158.800 C 333.042 158.800,333.200 157.075,333.200 154.424 C 333.200 151.937,333.373 149.940,333.600 149.800 C 333.827 149.660,334.000 147.663,334.000 145.176 C 334.000 142.769,334.150 140.800,334.333 140.800 C 334.716 140.800,334.689 141.106,334.803 135.504 C 334.851 133.142,335.039 131.301,335.221 131.413 C 335.403 131.525,335.645 129.588,335.760 127.109 C 336.295 115.533,336.486 112.991,336.830 112.867 C 337.034 112.793,337.200 111.082,337.200 109.064 C 337.200 107.046,337.371 104.797,337.581 104.067 C 337.790 103.336,337.993 100.949,338.030 98.762 C 338.068 96.575,338.236 94.701,338.403 94.598 C 338.571 94.494,338.725 92.692,338.746 90.593 C 338.768 88.493,338.946 86.466,339.143 86.088 C 339.340 85.709,339.542 83.780,339.591 81.800 C 339.698 77.517,339.766 76.712,340.062 76.193 C 340.185 75.977,340.297 74.323,340.310 72.517 C 340.324 70.711,340.463 68.832,340.619 68.341 C 340.774 67.851,340.936 65.809,340.978 63.805 C 341.019 61.801,341.156 59.989,341.282 59.780 C 341.407 59.571,341.541 57.336,341.578 54.813 C 341.616 52.290,341.825 50.011,342.042 49.749 C 342.306 49.431,342.296 49.183,342.013 49.008 C 341.779 48.863,341.691 48.577,341.817 48.372 C 341.959 48.143,288.041 48.000,201.238 48.000 C 67.530 48.000,60.411 48.035,60.088 48.700 M319.377 75.400 C 319.356 76.857,319.101 80.039,317.967 93.000 C 317.756 95.420,317.411 99.470,317.201 102.000 C 316.783 107.043,316.248 113.201,315.585 120.600 C 315.349 123.240,314.994 127.380,314.797 129.800 C 314.600 132.220,314.242 136.450,314.002 139.200 C 313.762 141.950,313.401 146.090,313.200 148.400 C 312.999 150.710,312.638 154.850,312.398 157.600 C 311.968 162.519,311.568 167.209,310.822 176.100 C 310.615 178.575,310.250 182.760,310.013 185.400 C 309.775 188.040,309.409 192.270,309.200 194.800 C 308.991 197.330,308.632 201.560,308.402 204.200 C 308.173 206.840,307.819 210.980,307.616 213.400 C 307.413 215.820,306.970 220.950,306.632 224.800 C 306.294 228.650,305.648 236.120,305.196 241.400 C 304.745 246.680,304.196 253.070,303.976 255.600 C 303.421 262.000,302.866 268.554,302.400 274.200 C 302.182 276.840,301.818 281.070,301.591 283.600 C 300.589 294.778,299.633 306.038,299.255 311.106 C 298.885 316.066,299.022 315.915,293.694 317.243 C 289.759 318.223,284.352 319.623,272.000 322.860 C 269.470 323.523,264.970 324.693,262.000 325.461 C 252.992 327.791,247.552 329.211,244.400 330.058 C 242.750 330.501,240.770 331.015,240.000 331.200 C 239.230 331.385,237.160 331.925,235.400 332.400 C 233.640 332.875,231.570 333.407,230.800 333.582 C 230.030 333.758,225.890 334.822,221.600 335.947 C 203.642 340.658,201.493 341.200,200.764 341.200 C 200.024 341.200,200.000 340.664,200.000 323.887 L 200.000 306.575 198.300 306.116 C 197.365 305.863,195.160 305.291,193.400 304.844 C 191.640 304.396,188.040 303.466,185.400 302.776 C 182.760 302.085,179.925 301.359,179.100 301.160 C 178.275 300.962,176.925 300.628,176.100 300.418 C 175.275 300.208,174.060 299.924,173.400 299.788 C 172.740 299.651,171.840 299.387,171.400 299.200 C 170.556 298.842,169.059 298.485,166.896 298.127 C 166.179 298.009,165.494 297.751,165.373 297.556 C 165.252 297.360,164.544 297.200,163.800 297.200 C 163.056 297.200,162.336 297.020,162.200 296.800 C 162.064 296.580,161.434 296.400,160.800 296.400 C 160.166 296.400,159.536 296.220,159.400 296.000 C 159.264 295.780,158.544 295.600,157.800 295.600 C 157.056 295.600,156.336 295.420,156.200 295.200 C 156.064 294.980,155.434 294.800,154.800 294.800 C 154.166 294.800,153.536 294.620,153.400 294.400 C 153.264 294.180,152.544 294.000,151.800 294.000 C 151.056 294.000,150.336 293.820,150.200 293.600 C 150.064 293.380,149.434 293.200,148.800 293.200 C 148.166 293.200,147.536 293.020,147.400 292.800 C 147.264 292.580,146.544 292.400,145.800 292.400 C 145.056 292.400,144.336 292.220,144.200 292.000 C 144.064 291.780,143.333 291.600,142.576 291.600 C 141.819 291.600,141.200 291.420,141.200 291.200 C 141.200 290.980,140.581 290.800,139.824 290.800 C 139.067 290.800,138.336 290.620,138.200 290.400 C 138.064 290.180,137.344 290.000,136.600 290.000 C 135.856 290.000,135.148 289.839,135.026 289.642 C 134.905 289.445,134.129 289.186,133.303 289.065 C 128.359 288.342,128.337 288.317,127.918 282.866 C 127.420 276.397,126.795 268.678,126.390 264.000 C 125.336 251.804,125.153 249.458,124.960 245.600 C 124.844 243.290,124.581 241.229,124.375 241.020 C 124.169 240.811,124.000 238.707,124.000 236.344 C 124.000 233.911,123.826 231.940,123.600 231.800 C 122.967 231.409,123.135 229.711,123.833 229.443 C 124.181 229.309,132.452 229.200,142.214 229.200 L 159.962 229.200 160.560 230.500 C 160.889 231.215,161.252 233.060,161.367 234.600 C 161.482 236.140,161.768 239.020,162.002 241.000 C 162.236 242.980,162.525 245.950,162.644 247.600 C 162.763 249.250,163.027 250.771,163.230 250.980 C 163.434 251.189,163.603 252.539,163.606 253.980 C 163.615 258.015,164.364 259.734,166.261 260.081 C 169.889 260.743,182.105 263.374,184.400 263.988 C 185.170 264.194,186.340 264.470,187.000 264.603 C 188.741 264.951,191.140 265.492,193.200 266.000 C 194.190 266.244,195.720 266.598,196.600 266.787 C 197.480 266.976,198.605 267.257,199.100 267.412 L 200.000 267.693 200.000 241.047 L 200.000 214.400 161.462 214.400 C 116.668 214.400,121.771 215.089,121.439 209.000 C 121.236 205.285,121.076 203.290,120.005 191.100 C 119.108 180.892,118.817 177.568,118.425 173.000 C 118.198 170.360,117.832 166.130,117.611 163.600 C 117.390 161.070,117.032 156.930,116.814 154.400 C 116.358 149.093,115.796 142.611,115.210 135.900 C 114.569 128.551,114.077 122.663,113.615 116.800 C 113.381 113.830,113.089 111.085,112.968 110.700 C 112.181 108.212,108.618 108.400,156.627 108.400 L 200.000 108.400 200.000 91.267 C 200.000 81.843,200.121 74.013,200.268 73.865 C 200.415 73.718,227.280 73.643,259.968 73.699 L 319.400 73.800 319.377 75.400 M151.371 145.900 C 151.526 147.165,151.812 150.360,152.007 153.000 C 152.202 155.640,152.566 160.410,152.816 163.600 C 153.067 166.790,153.391 171.110,153.536 173.200 L 153.800 177.000 176.900 177.103 L 200.000 177.206 200.000 160.403 L 200.000 143.600 175.544 143.600 L 151.088 143.600 151.371 145.900 " stroke="none" fill="#d43b2c" fill-rule="evenodd"></path><path id="path2" d="M200.268 73.865 C 200.121 74.013,200.000 81.843,200.000 91.265 L 200.000 108.397 244.500 108.498 L 289.000 108.600 288.920 110.000 C 288.802 112.080,287.514 127.876,286.687 137.400 L 286.200 143.000 243.200 143.200 L 200.200 143.400 200.096 160.300 L 199.991 177.200 241.388 177.200 L 282.785 177.200 283.042 178.224 C 283.183 178.787,283.177 180.002,283.028 180.924 C 282.878 181.846,282.577 184.760,282.358 187.400 C 281.537 197.302,280.673 207.420,280.000 215.000 C 279.004 226.225,278.734 229.287,278.398 233.200 C 278.200 235.510,277.841 239.650,277.600 242.400 C 277.359 245.150,276.999 249.290,276.800 251.600 C 276.601 253.910,276.241 258.050,276.000 260.800 C 275.452 267.068,274.954 272.832,274.428 279.000 C 273.661 288.006,273.609 288.170,271.386 288.558 C 270.624 288.691,269.368 288.910,268.596 289.044 C 267.824 289.179,267.094 289.449,266.973 289.644 C 266.852 289.840,266.144 290.000,265.400 290.000 C 264.656 290.000,263.936 290.180,263.800 290.400 C 263.664 290.620,263.034 290.800,262.400 290.800 C 261.766 290.800,261.136 290.980,261.000 291.200 C 260.864 291.420,260.144 291.600,259.400 291.600 C 258.656 291.600,257.936 291.780,257.800 292.000 C 257.664 292.220,256.944 292.400,256.200 292.400 C 255.456 292.400,254.736 292.580,254.600 292.800 C 254.464 293.020,253.834 293.200,253.200 293.200 C 252.566 293.200,251.936 293.380,251.800 293.600 C 251.664 293.820,250.944 294.000,250.200 294.000 C 249.456 294.000,248.736 294.180,248.600 294.400 C 248.464 294.620,247.834 294.800,247.200 294.800 C 246.566 294.800,245.936 294.980,245.800 295.200 C 245.664 295.420,244.944 295.600,244.200 295.600 C 243.456 295.600,242.748 295.760,242.627 295.956 C 242.506 296.151,241.776 296.421,241.004 296.556 C 240.232 296.690,238.968 296.910,238.196 297.044 C 237.424 297.179,236.694 297.449,236.573 297.644 C 236.452 297.840,235.744 298.000,235.000 298.000 C 234.256 298.000,233.548 298.160,233.427 298.356 C 233.306 298.551,232.621 298.808,231.904 298.927 C 230.437 299.169,228.758 299.574,224.400 300.737 C 222.750 301.178,218.430 302.275,214.800 303.174 C 211.170 304.074,207.647 304.988,206.972 305.205 C 206.296 305.422,205.362 305.600,204.895 305.600 C 204.429 305.600,203.936 305.780,203.800 306.000 C 203.664 306.220,202.753 306.400,201.776 306.400 L 200.000 306.400 200.000 323.800 C 200.000 340.663,200.024 341.200,200.764 341.200 C 201.493 341.200,203.642 340.658,221.600 335.947 C 225.890 334.822,230.030 333.758,230.800 333.582 C 231.570 333.407,233.640 332.875,235.400 332.400 C 237.160 331.925,239.230 331.385,240.000 331.200 C 240.770 331.015,242.750 330.501,244.400 330.058 C 247.552 329.211,252.992 327.791,262.000 325.461 C 264.970 324.693,269.470 323.523,272.000 322.860 C 284.352 319.623,289.759 318.223,293.694 317.243 C 299.022 315.915,298.885 316.066,299.255 311.106 C 299.633 306.038,300.589 294.778,301.591 283.600 C 301.818 281.070,302.182 276.840,302.400 274.200 C 302.866 268.554,303.421 262.000,303.976 255.600 C 304.196 253.070,304.745 246.680,305.196 241.400 C 305.648 236.120,306.294 228.650,306.632 224.800 C 306.970 220.950,307.413 215.820,307.616 213.400 C 307.819 210.980,308.173 206.840,308.402 204.200 C 308.632 201.560,308.991 197.330,309.200 194.800 C 309.409 192.270,309.775 188.040,310.013 185.400 C 310.250 182.760,310.615 178.575,310.822 176.100 C 311.568 167.209,311.968 162.519,312.398 157.600 C 312.638 154.850,312.999 150.710,313.200 148.400 C 313.401 146.090,313.762 141.950,314.002 139.200 C 314.242 136.450,314.600 132.220,314.797 129.800 C 314.994 127.380,315.349 123.240,315.585 120.600 C 316.248 113.201,316.783 107.043,317.201 102.000 C 317.411 99.470,317.756 95.420,317.967 93.000 C 319.101 80.039,319.356 76.857,319.377 75.400 L 319.400 73.800 259.968 73.699 C 227.280 73.643,200.415 73.718,200.268 73.865 M200.000 241.047 L 200.000 267.693 201.100 267.425 C 201.705 267.278,202.920 267.006,203.800 266.822 C 204.680 266.638,206.390 266.268,207.600 266.000 C 208.810 265.732,210.520 265.372,211.400 265.202 C 212.280 265.031,216.240 264.216,220.200 263.392 C 231.669 261.004,234.384 260.463,236.800 260.083 L 238.600 259.800 238.914 257.400 C 239.086 256.080,239.398 253.560,239.606 251.800 C 239.814 250.040,240.175 247.070,240.407 245.200 C 240.639 243.330,240.919 240.540,241.029 239.000 C 241.139 237.460,241.396 235.840,241.600 235.400 C 241.804 234.960,242.062 233.340,242.174 231.800 C 242.285 230.260,242.556 227.470,242.777 225.600 C 242.997 223.730,243.325 220.668,243.506 218.796 C 243.686 216.923,243.972 215.168,244.141 214.896 C 244.383 214.504,239.800 214.400,222.224 214.400 L 200.000 214.400 200.000 241.047 M75.293 230.800 C 75.293 231.570,75.375 231.885,75.476 231.500 C 75.576 231.115,75.576 230.485,75.476 230.100 C 75.375 229.715,75.293 230.030,75.293 230.800 M324.501 255.400 C 324.505 256.280,324.587 256.593,324.683 256.095 C 324.779 255.598,324.775 254.878,324.675 254.495 C 324.575 254.113,324.496 254.520,324.501 255.400 " stroke="none" fill="#ec3c34" fill-rule="evenodd"></path><path id="path3" d="M157.532 108.700 C 181.585 108.757,220.825 108.757,244.732 108.700 C 268.639 108.643,248.960 108.596,201.000 108.596 C 153.040 108.596,133.479 108.643,157.532 108.700 M288.093 116.000 C 288.093 116.770,288.175 117.085,288.276 116.700 C 288.376 116.315,288.376 115.685,288.276 115.300 C 288.175 114.915,288.093 115.230,288.093 116.000 M120.893 196.800 C 120.893 197.570,120.975 197.885,121.076 197.500 C 121.176 197.115,121.176 196.485,121.076 196.100 C 120.975 195.715,120.893 196.030,120.893 196.800 M280.501 203.000 C 280.505 203.880,280.587 204.193,280.683 203.695 C 280.779 203.198,280.775 202.478,280.675 202.095 C 280.575 201.713,280.496 202.120,280.501 203.000 M121.693 206.400 C 121.693 207.170,121.775 207.485,121.876 207.100 C 121.976 206.715,121.976 206.085,121.876 205.700 C 121.775 205.315,121.693 205.630,121.693 206.400 M279.709 212.400 C 279.709 213.390,279.787 213.795,279.882 213.300 C 279.978 212.805,279.978 211.995,279.882 211.500 C 279.787 211.005,279.709 211.410,279.709 212.400 M146.127 213.900 C 150.707 213.964,158.087 213.964,162.527 213.899 C 166.967 213.835,163.220 213.783,154.200 213.783 C 145.180 213.783,141.547 213.835,146.127 213.900 M241.705 214.287 C 242.314 214.379,243.214 214.377,243.705 214.282 C 244.197 214.187,243.700 214.111,242.600 214.114 C 241.500 214.117,241.097 214.195,241.705 214.287 M278.909 222.000 C 278.909 222.990,278.987 223.395,279.082 222.900 C 279.178 222.405,279.178 221.595,279.082 221.100 C 278.987 220.605,278.909 221.010,278.909 222.000 M278.109 231.200 C 278.109 232.190,278.187 232.595,278.282 232.100 C 278.378 231.605,278.378 230.795,278.282 230.300 C 278.187 229.805,278.109 230.210,278.109 231.200 M124.093 234.400 C 124.093 235.170,124.175 235.485,124.276 235.100 C 124.376 234.715,124.376 234.085,124.276 233.700 C 124.175 233.315,124.093 233.630,124.093 234.400 M277.309 240.800 C 277.309 241.790,277.387 242.195,277.482 241.700 C 277.578 241.205,277.578 240.395,277.482 239.900 C 277.387 239.405,277.309 239.810,277.309 240.800 M124.893 244.000 C 124.893 244.770,124.975 245.085,125.076 244.700 C 125.176 244.315,125.176 243.685,125.076 243.300 C 124.975 242.915,124.893 243.230,124.893 244.000 M240.493 246.000 C 240.493 246.770,240.575 247.085,240.676 246.700 C 240.776 246.315,240.776 245.685,240.676 245.300 C 240.575 244.915,240.493 245.230,240.493 246.000 M276.509 250.400 C 276.509 251.390,276.587 251.795,276.682 251.300 C 276.778 250.805,276.778 249.995,276.682 249.500 C 276.587 249.005,276.509 249.410,276.509 250.400 M239.693 252.800 C 239.693 253.570,239.775 253.885,239.876 253.500 C 239.976 253.115,239.976 252.485,239.876 252.100 C 239.775 251.715,239.693 252.030,239.693 252.800 M275.701 259.800 C 275.705 260.680,275.787 260.993,275.883 260.495 C 275.979 259.998,275.975 259.278,275.875 258.895 C 275.775 258.513,275.696 258.920,275.701 259.800 M126.493 262.800 C 126.493 263.570,126.575 263.885,126.676 263.500 C 126.776 263.115,126.776 262.485,126.676 262.100 C 126.575 261.715,126.493 262.030,126.493 262.800 M274.901 269.400 C 274.905 270.280,274.987 270.593,275.083 270.095 C 275.179 269.598,275.175 268.878,275.075 268.495 C 274.975 268.113,274.896 268.520,274.901 269.400 M274.101 278.600 C 274.105 279.480,274.187 279.793,274.283 279.295 C 274.379 278.798,274.375 278.078,274.275 277.695 C 274.175 277.313,274.096 277.720,274.101 278.600 " stroke="none" fill="#eb8982" fill-rule="evenodd"></path><path id="path4" d="M163.300 143.100 C 170.065 143.161,181.135 143.161,187.900 143.100 C 194.665 143.038,189.130 142.988,175.600 142.988 C 162.070 142.988,156.535 143.038,163.300 143.100 M153.543 177.703 C 153.710 177.870,164.276 177.960,177.023 177.903 L 200.200 177.800 176.720 177.600 C 163.806 177.490,153.376 177.536,153.543 177.703 M122.758 213.320 C 122.935 213.495,124.321 213.584,125.840 213.516 L 128.600 213.392 125.518 213.196 C 123.823 213.088,122.581 213.144,122.758 213.320 M177.100 213.899 C 180.895 213.965,187.105 213.965,190.900 213.899 C 194.695 213.834,191.590 213.780,184.000 213.780 C 176.410 213.780,173.305 213.834,177.100 213.899 M125.693 251.200 C 125.693 251.970,125.775 252.285,125.876 251.900 C 125.976 251.515,125.976 250.885,125.876 250.500 C 125.775 250.115,125.693 250.430,125.693 251.200 " stroke="none" fill="#ea9c94" fill-rule="evenodd"></path><path id="path5" d="M288.315 108.739 C 288.666 108.961,288.764 109.633,288.622 110.833 L 288.414 112.600 288.818 111.017 C 289.264 109.271,289.095 108.397,288.313 108.406 C 287.898 108.411,287.899 108.475,288.315 108.739 M287.833 119.233 C 287.683 120.366,287.641 121.374,287.739 121.472 C 287.837 121.571,288.045 120.728,288.200 119.600 C 288.355 118.472,288.398 117.464,288.294 117.361 C 288.191 117.258,287.984 118.100,287.833 119.233 M287.293 127.600 C 287.293 128.370,287.375 128.685,287.476 128.300 C 287.576 127.915,287.576 127.285,287.476 126.900 C 287.375 126.515,287.293 126.830,287.293 127.600 M286.893 130.400 C 286.893 131.170,286.975 131.485,287.076 131.100 C 287.176 130.715,287.176 130.085,287.076 129.700 C 286.975 129.315,286.893 129.630,286.893 130.400 M286.493 136.800 C 286.493 137.570,286.575 137.885,286.676 137.500 C 286.776 137.115,286.776 136.485,286.676 136.100 C 286.575 135.715,286.493 136.030,286.493 136.800 M286.114 140.200 C 286.117 141.300,286.195 141.703,286.287 141.095 C 286.379 140.486,286.377 139.586,286.282 139.095 C 286.187 138.603,286.111 139.100,286.114 140.200 M116.901 151.800 C 116.905 152.680,116.987 152.993,117.083 152.495 C 117.179 151.998,117.175 151.278,117.075 150.895 C 116.975 150.513,116.896 150.920,116.901 151.800 M117.701 161.400 C 117.705 162.280,117.787 162.593,117.883 162.095 C 117.979 161.598,117.975 160.878,117.875 160.495 C 117.775 160.113,117.696 160.520,117.701 161.400 M118.501 171.000 C 118.505 171.880,118.587 172.193,118.683 171.695 C 118.779 171.198,118.775 170.478,118.675 170.095 C 118.575 169.713,118.496 170.120,118.501 171.000 M218.200 177.598 L 282.600 177.800 282.843 179.400 C 283.065 180.857,283.092 180.887,283.143 179.733 C 283.268 176.952,289.599 177.190,218.257 177.298 L 153.800 177.396 218.200 177.598 M119.309 180.400 C 119.309 181.390,119.387 181.795,119.482 181.300 C 119.578 180.805,119.578 179.995,119.482 179.500 C 119.387 179.005,119.309 179.410,119.309 180.400 M282.131 187.400 C 282.133 188.940,282.205 189.521,282.292 188.691 C 282.379 187.861,282.377 186.601,282.289 185.891 C 282.200 185.181,282.129 185.860,282.131 187.400 M120.101 189.800 C 120.105 190.680,120.187 190.993,120.283 190.495 C 120.379 189.998,120.375 189.278,120.275 188.895 C 120.175 188.513,120.096 188.920,120.101 189.800 M281.331 197.000 C 281.333 198.540,281.405 199.121,281.492 198.291 C 281.579 197.461,281.577 196.201,281.489 195.491 C 281.400 194.781,281.329 195.460,281.331 197.000 M120.901 199.400 C 120.905 200.280,120.987 200.593,121.083 200.095 C 121.179 199.598,121.175 198.878,121.075 198.495 C 120.975 198.113,120.896 198.520,120.901 199.400 M280.524 206.600 C 280.526 207.920,280.601 208.412,280.690 207.693 C 280.779 206.974,280.777 205.894,280.686 205.293 C 280.595 204.692,280.522 205.280,280.524 206.600 M121.693 208.800 C 121.693 209.570,121.775 209.885,121.876 209.500 C 121.976 209.115,121.976 208.485,121.876 208.100 C 121.775 207.715,121.693 208.030,121.693 208.800 M122.748 213.709 C 122.919 213.879,126.465 213.969,130.629 213.908 L 138.200 213.798 130.319 213.599 C 125.985 213.490,122.578 213.539,122.748 213.709 M205.300 214.300 C 211.845 214.361,222.555 214.361,229.100 214.300 C 235.645 214.238,230.290 214.188,217.200 214.188 C 204.110 214.188,198.755 214.238,205.300 214.300 M279.720 216.000 C 279.720 217.210,279.795 217.705,279.887 217.100 C 279.978 216.495,279.978 215.505,279.887 214.900 C 279.795 214.295,279.720 214.790,279.720 216.000 M243.800 216.400 C 243.648 217.091,243.607 217.741,243.709 217.842 C 243.811 217.944,244.009 217.453,244.150 216.750 C 244.291 216.047,244.331 215.398,244.241 215.308 C 244.150 215.217,243.952 215.709,243.800 216.400 M243.049 222.615 C 242.912 222.973,242.818 223.656,242.841 224.133 C 242.867 224.681,243.003 224.486,243.210 223.603 C 243.560 222.116,243.465 221.533,243.049 222.615 M278.870 225.050 C 278.831 225.957,278.711 227.308,278.601 228.050 L 278.403 229.400 278.823 228.062 C 279.053 227.327,279.174 225.977,279.091 225.062 L 278.940 223.400 278.870 225.050 M242.256 229.284 C 242.121 229.788,242.027 230.560,242.046 231.000 C 242.065 231.440,242.245 231.098,242.446 230.240 C 242.836 228.578,242.670 227.740,242.256 229.284 M278.070 234.250 C 278.031 235.157,277.911 236.507,277.801 237.250 L 277.603 238.600 278.023 237.262 C 278.253 236.527,278.374 235.177,278.291 234.262 L 278.140 232.600 278.070 234.250 M241.449 235.815 C 241.312 236.173,241.218 236.946,241.240 237.533 C 241.273 238.391,241.352 238.295,241.646 237.040 C 242.022 235.439,241.895 234.653,241.449 235.815 M240.656 242.484 C 240.521 242.988,240.427 243.760,240.446 244.200 C 240.465 244.640,240.645 244.298,240.846 243.440 C 241.236 241.778,241.070 240.940,240.656 242.484 M277.270 243.450 C 277.231 244.138,277.105 245.308,276.989 246.050 C 276.796 247.286,276.815 247.317,277.208 246.414 C 277.444 245.872,277.571 244.702,277.489 243.814 C 277.368 242.502,277.327 242.433,277.270 243.450 M239.849 249.015 C 239.712 249.373,239.618 250.146,239.640 250.733 C 239.673 251.591,239.752 251.495,240.046 250.240 C 240.422 248.639,240.295 247.853,239.849 249.015 M276.467 252.850 C 276.430 253.428,276.305 254.507,276.189 255.250 C 275.996 256.486,276.015 256.517,276.408 255.614 C 276.645 255.071,276.770 253.991,276.686 253.214 C 276.577 252.192,276.516 252.091,276.467 252.850 M239.056 255.684 C 238.921 256.188,238.828 257.050,238.849 257.600 C 238.872 258.189,239.031 257.871,239.236 256.825 C 239.603 254.952,239.473 254.127,239.056 255.684 M275.667 262.050 C 275.630 262.627,275.505 263.707,275.389 264.450 C 275.196 265.686,275.215 265.717,275.608 264.814 C 275.845 264.271,275.970 263.191,275.886 262.414 C 275.777 261.392,275.716 261.291,275.667 262.050 M223.400 262.800 C 222.896 263.017,222.822 263.144,223.200 263.144 C 223.530 263.144,224.160 262.989,224.600 262.800 C 225.104 262.583,225.178 262.456,224.800 262.456 C 224.470 262.456,223.840 262.611,223.400 262.800 M215.600 264.400 C 214.796 264.657,214.757 264.723,215.400 264.732 C 215.840 264.738,216.560 264.589,217.000 264.400 C 218.019 263.962,216.968 263.962,215.600 264.400 M274.864 271.450 C 274.829 271.918,274.705 272.907,274.589 273.650 C 274.396 274.886,274.415 274.917,274.808 274.014 C 275.045 273.472,275.168 272.482,275.083 271.814 C 274.991 271.097,274.902 270.948,274.864 271.450 M274.064 280.650 C 274.029 281.118,273.905 282.108,273.789 282.850 C 273.596 284.086,273.615 284.117,274.008 283.214 C 274.245 282.672,274.368 281.682,274.283 281.014 C 274.191 280.297,274.102 280.148,274.064 280.650 M235.200 297.600 C 234.376 297.864,234.341 297.926,235.000 297.954 C 235.440 297.973,236.070 297.813,236.400 297.600 C 237.101 297.147,236.614 297.147,235.200 297.600 " stroke="none" fill="#e4645a" fill-rule="evenodd"></path><path id="path6" d="M113.750 109.387 C 113.626 109.710,113.617 110.205,113.731 110.487 C 113.844 110.769,113.951 110.595,113.968 110.100 L 114.000 109.200 200.982 109.200 L 287.965 109.200 288.103 112.100 L 288.241 115.000 288.321 111.900 L 288.400 108.800 201.187 108.800 C 124.906 108.800,113.947 108.874,113.750 109.387 M114.114 114.600 C 114.117 115.700,114.195 116.103,114.287 115.495 C 114.379 114.886,114.377 113.986,114.282 113.495 C 114.187 113.003,114.111 113.500,114.114 114.600 M287.701 116.600 C 287.705 117.480,287.787 117.793,287.883 117.295 C 287.979 116.798,287.975 116.078,287.875 115.695 C 287.775 115.313,287.696 115.720,287.701 116.600 M287.331 121.400 C 287.333 122.940,287.405 123.521,287.492 122.691 C 287.579 121.861,287.577 120.601,287.489 119.891 C 287.400 119.181,287.329 119.860,287.331 121.400 M114.914 124.200 C 114.917 125.300,114.995 125.703,115.087 125.095 C 115.179 124.486,115.177 123.586,115.082 123.095 C 114.987 122.603,114.911 123.100,114.914 124.200 M286.901 125.800 C 286.905 126.680,286.987 126.993,287.083 126.495 C 287.179 125.998,287.175 125.278,287.075 124.895 C 286.975 124.513,286.896 124.920,286.901 125.800 M286.471 130.200 C 286.428 131.300,286.311 133.190,286.210 134.400 L 286.026 136.600 286.427 134.400 C 286.648 133.190,286.765 131.300,286.688 130.200 L 286.548 128.200 286.471 130.200 M115.701 133.800 C 115.705 134.680,115.787 134.993,115.883 134.495 C 115.979 133.998,115.975 133.278,115.875 132.895 C 115.775 132.513,115.696 132.920,115.701 133.800 M116.093 137.200 C 116.093 137.970,116.175 138.285,116.276 137.900 C 116.376 137.515,116.376 136.885,116.276 136.500 C 116.175 136.115,116.093 136.430,116.093 137.200 M285.586 140.200 L 285.400 142.600 242.600 142.803 L 199.800 143.005 242.451 143.103 C 290.397 143.212,286.137 143.523,285.908 139.932 L 285.771 137.800 285.586 140.200 M116.493 143.200 C 116.493 143.970,116.575 144.285,116.676 143.900 C 116.776 143.515,116.776 142.885,116.676 142.500 C 116.575 142.115,116.493 142.430,116.493 143.200 M150.561 143.358 C 150.443 143.665,150.408 144.610,150.483 145.458 C 150.610 146.887,150.634 146.846,150.810 144.900 C 151.004 142.756,150.941 142.367,150.561 143.358 M150.893 151.600 C 150.893 152.370,150.975 152.685,151.076 152.300 C 151.176 151.915,151.176 151.285,151.076 150.900 C 150.975 150.515,150.893 150.830,150.893 151.600 M151.314 155.400 C 151.317 156.500,151.395 156.903,151.487 156.295 C 151.579 155.686,151.577 154.786,151.482 154.295 C 151.387 153.803,151.311 154.300,151.314 155.400 M117.693 155.600 C 117.693 156.370,117.775 156.685,117.876 156.300 C 117.976 155.915,117.976 155.285,117.876 154.900 C 117.775 154.515,117.693 154.830,117.693 155.600 M151.693 161.600 C 151.693 162.370,151.775 162.685,151.876 162.300 C 151.976 161.915,151.976 161.285,151.876 160.900 C 151.775 160.515,151.693 160.830,151.693 161.600 M118.093 162.000 C 118.093 162.770,118.175 163.085,118.276 162.700 C 118.376 162.315,118.376 161.685,118.276 161.300 C 118.175 160.915,118.093 161.230,118.093 162.000 M118.493 164.800 C 118.493 165.570,118.575 165.885,118.676 165.500 C 118.776 165.115,118.776 164.485,118.676 164.100 C 118.575 163.715,118.493 164.030,118.493 164.800 M152.114 165.800 C 152.117 166.900,152.195 167.303,152.287 166.695 C 152.379 166.086,152.377 165.186,152.282 164.695 C 152.187 164.203,152.111 164.700,152.114 165.800 M152.493 171.600 C 152.493 172.370,152.575 172.685,152.676 172.300 C 152.776 171.915,152.776 171.285,152.676 170.900 C 152.575 170.515,152.493 170.830,152.493 171.600 M119.301 174.200 C 119.305 175.080,119.387 175.393,119.483 174.895 C 119.579 174.398,119.575 173.678,119.475 173.295 C 119.375 172.913,119.296 173.320,119.301 174.200 M152.901 175.800 C 152.905 176.680,152.987 176.993,153.083 176.495 C 153.179 175.998,153.175 175.278,153.075 174.895 C 152.975 174.513,152.896 174.920,152.901 175.800 M241.000 178.001 C 263.660 178.116,282.215 178.252,282.233 178.305 C 282.251 178.357,282.215 179.435,282.154 180.700 L 282.042 183.000 282.389 180.803 C 282.943 177.298,286.824 177.588,240.851 177.696 L 199.800 177.793 241.000 178.001 M120.101 183.400 C 120.105 184.280,120.187 184.593,120.283 184.095 C 120.379 183.598,120.375 182.878,120.275 182.495 C 120.175 182.113,120.096 182.520,120.101 183.400 M281.388 188.588 C 281.231 190.264,281.193 191.726,281.303 191.836 C 281.413 191.946,281.631 190.664,281.788 188.988 C 281.945 187.312,281.984 185.850,281.874 185.740 C 281.764 185.630,281.545 186.912,281.388 188.588 M120.901 192.600 C 120.905 193.480,120.987 193.793,121.083 193.295 C 121.179 192.798,121.175 192.078,121.075 191.695 C 120.975 191.313,120.896 191.720,120.901 192.600 M280.593 197.738 C 280.438 199.387,280.393 200.975,280.493 201.268 C 280.592 201.561,280.806 200.299,280.967 198.464 C 281.129 196.629,281.174 195.041,281.068 194.934 C 280.961 194.828,280.747 196.089,280.593 197.738 M121.693 202.000 C 121.693 202.770,121.775 203.085,121.876 202.700 C 121.976 202.315,121.976 201.685,121.876 201.300 C 121.775 200.915,121.693 201.230,121.693 202.000 M279.793 206.938 C 279.638 208.587,279.593 210.175,279.693 210.468 C 279.792 210.761,280.006 209.499,280.167 207.664 C 280.329 205.829,280.374 204.241,280.268 204.134 C 280.161 204.028,279.947 205.289,279.793 206.938 M122.501 211.400 C 122.505 212.280,122.587 212.593,122.683 212.095 C 122.779 211.598,122.775 210.878,122.675 210.495 C 122.575 210.113,122.496 210.520,122.501 211.400 M142.500 213.500 C 150.365 213.560,163.235 213.560,171.100 213.500 C 178.965 213.439,172.530 213.390,156.800 213.390 C 141.070 213.390,134.635 213.439,142.500 213.500 M208.300 213.900 C 214.295 213.962,224.105 213.962,230.100 213.900 C 236.095 213.838,231.190 213.787,219.200 213.787 C 207.210 213.787,202.305 213.838,208.300 213.900 M279.081 215.356 C 278.927 216.432,278.823 218.052,278.852 218.956 C 278.888 220.099,279.011 219.685,279.256 217.600 C 279.656 214.202,279.512 212.360,279.081 215.356 M244.509 215.600 C 244.509 216.590,244.587 216.995,244.682 216.500 C 244.778 216.005,244.778 215.195,244.682 214.700 C 244.587 214.205,244.509 214.610,244.509 215.600 M243.665 221.400 C 243.625 222.280,243.506 223.720,243.402 224.600 L 243.212 226.200 243.623 224.600 C 243.848 223.720,243.967 222.280,243.886 221.400 L 243.740 219.800 243.665 221.400 M278.289 224.556 C 278.130 225.632,278.023 227.252,278.051 228.156 C 278.089 229.414,278.186 229.142,278.463 227.000 C 278.878 223.779,278.724 221.611,278.289 224.556 M242.865 228.200 C 242.825 229.080,242.706 230.520,242.602 231.400 L 242.412 233.000 242.823 231.400 C 243.048 230.520,243.167 229.080,243.086 228.200 L 242.940 226.600 242.865 228.200 M124.138 230.217 C 124.008 230.557,124.013 230.947,124.151 231.084 C 124.288 231.221,124.400 231.035,124.400 230.671 C 124.400 230.066,125.948 229.999,142.300 229.900 L 160.200 229.792 142.287 229.696 C 126.454 229.611,124.347 229.672,124.138 230.217 M160.093 232.800 C 160.093 233.570,160.175 233.885,160.276 233.500 C 160.376 233.115,160.376 232.485,160.276 232.100 C 160.175 231.715,160.093 232.030,160.093 232.800 M277.481 233.756 C 277.327 234.832,277.224 236.542,277.253 237.556 C 277.293 238.948,277.391 238.616,277.653 236.200 C 278.043 232.596,277.914 230.749,277.481 233.756 M242.065 234.800 C 242.025 235.570,241.904 236.920,241.797 237.800 L 241.603 239.400 242.023 238.062 C 242.254 237.327,242.374 235.977,242.291 235.062 C 242.148 233.491,242.136 233.477,242.065 234.800 M124.914 239.000 C 124.917 240.100,124.995 240.503,125.087 239.895 C 125.179 239.286,125.177 238.386,125.082 237.895 C 124.987 237.403,124.911 237.900,124.914 239.000 M160.893 239.600 C 160.893 240.370,160.975 240.685,161.076 240.300 C 161.176 239.915,161.176 239.285,161.076 238.900 C 160.975 238.515,160.893 238.830,160.893 239.600 M241.263 241.600 C 241.223 242.370,241.106 243.720,241.002 244.600 L 240.812 246.200 241.223 244.600 C 241.448 243.720,241.566 242.370,241.484 241.600 L 241.334 240.200 241.263 241.600 M276.686 243.000 C 276.533 243.880,276.431 245.590,276.458 246.800 C 276.503 248.842,276.531 248.771,276.853 245.800 C 277.234 242.285,277.125 240.464,276.686 243.000 M125.709 248.400 C 125.709 249.390,125.787 249.795,125.882 249.300 C 125.978 248.805,125.978 247.995,125.882 247.500 C 125.787 247.005,125.709 247.410,125.709 248.400 M240.463 248.200 C 240.423 248.860,240.304 250.120,240.197 251.000 L 240.003 252.600 240.423 251.260 C 240.654 250.523,240.774 249.263,240.689 248.460 C 240.552 247.166,240.526 247.137,240.463 248.200 M275.868 252.559 C 275.720 253.633,275.624 255.432,275.654 256.556 C 275.695 258.099,275.793 257.717,276.054 255.000 C 276.429 251.089,276.301 249.400,275.868 252.559 M239.663 255.000 C 239.623 255.660,239.504 256.920,239.397 257.800 L 239.203 259.400 239.623 258.060 C 239.854 257.323,239.974 256.063,239.889 255.260 C 239.752 253.966,239.726 253.937,239.663 255.000 M126.514 257.800 C 126.517 258.900,126.595 259.303,126.687 258.695 C 126.779 258.086,126.777 257.186,126.682 256.695 C 126.587 256.203,126.511 256.700,126.514 257.800 M275.068 261.759 C 274.920 262.833,274.824 264.632,274.854 265.756 C 274.895 267.299,274.993 266.917,275.254 264.200 C 275.629 260.289,275.501 258.600,275.068 261.759 M234.445 260.832 C 233.479 261.022,232.586 261.281,232.460 261.407 C 232.163 261.704,235.553 261.179,236.600 260.766 C 237.628 260.361,236.702 260.389,234.445 260.832 M226.845 262.432 C 225.879 262.622,224.986 262.881,224.860 263.007 C 224.563 263.304,227.953 262.779,229.000 262.366 C 230.028 261.961,229.102 261.989,226.845 262.432 M221.400 263.610 C 220.866 263.847,221.198 263.886,222.400 263.727 C 223.390 263.596,224.275 263.424,224.367 263.344 C 224.714 263.043,222.164 263.272,221.400 263.610 M217.800 264.419 C 217.242 264.671,217.485 264.707,218.600 264.538 C 219.480 264.404,220.275 264.228,220.367 264.147 C 220.710 263.844,218.568 264.071,217.800 264.419 M213.800 265.200 L 213.000 265.544 213.800 265.532 C 214.240 265.526,215.050 265.376,215.600 265.200 L 216.600 264.880 215.600 264.868 C 215.050 264.862,214.240 265.011,213.800 265.200 M127.314 267.400 C 127.317 268.500,127.395 268.903,127.487 268.295 C 127.579 267.686,127.577 266.786,127.482 266.295 C 127.387 265.803,127.311 266.300,127.314 267.400 M210.200 266.000 C 209.181 266.438,210.232 266.438,211.600 266.000 C 212.404 265.743,212.443 265.677,211.800 265.668 C 211.360 265.662,210.640 265.811,210.200 266.000 M206.400 266.800 C 205.608 267.054,205.567 267.120,206.200 267.120 C 206.640 267.120,207.450 266.976,208.000 266.800 C 208.792 266.546,208.833 266.480,208.200 266.480 C 207.760 266.480,206.950 266.624,206.400 266.800 M202.600 267.600 L 201.800 267.944 202.600 267.944 C 203.040 267.944,203.760 267.789,204.200 267.600 L 205.000 267.256 204.200 267.256 C 203.760 267.256,203.040 267.411,202.600 267.600 M274.268 270.959 C 274.120 272.033,274.025 273.922,274.055 275.156 C 274.099 276.949,274.179 276.636,274.451 273.600 C 274.820 269.488,274.702 267.791,274.268 270.959 M128.120 276.800 C 128.120 278.010,128.195 278.505,128.287 277.900 C 128.378 277.295,128.378 276.305,128.287 275.700 C 128.195 275.095,128.120 275.590,128.120 276.800 M273.471 280.402 C 273.326 281.611,273.230 283.500,273.258 284.600 C 273.293 285.934,273.423 285.335,273.651 282.800 C 274.024 278.637,273.893 276.886,273.471 280.402 M128.949 285.769 C 128.982 286.793,129.208 287.394,129.600 287.500 C 130.009 287.610,130.051 287.555,129.733 287.327 C 129.475 287.143,129.183 286.365,129.082 285.597 C 128.906 284.259,128.900 284.266,128.949 285.769 M269.400 288.175 C 268.300 288.463,266.884 288.819,266.253 288.968 C 265.622 289.117,265.180 289.314,265.272 289.405 C 265.470 289.603,271.588 288.146,271.910 287.824 C 272.230 287.504,271.671 287.582,269.400 288.175 M262.400 290.006 C 261.978 290.282,262.215 290.323,263.200 290.142 C 264.925 289.825,265.251 289.598,263.967 289.606 C 263.435 289.609,262.730 289.789,262.400 290.006 M259.400 290.800 C 258.381 291.238,259.432 291.238,260.800 290.800 C 261.604 290.543,261.643 290.477,261.000 290.468 C 260.560 290.462,259.840 290.611,259.400 290.800 M256.400 291.618 C 255.962 291.915,256.124 291.952,257.000 291.756 C 258.471 291.427,258.790 291.198,257.767 291.206 C 257.345 291.209,256.730 291.395,256.400 291.618 M253.200 292.406 C 252.778 292.682,253.015 292.723,254.000 292.542 C 255.725 292.225,256.051 291.998,254.767 292.006 C 254.235 292.009,253.530 292.189,253.200 292.406 M250.400 293.218 C 249.962 293.515,250.124 293.552,251.000 293.356 C 252.471 293.027,252.790 292.798,251.767 292.806 C 251.345 292.809,250.730 292.995,250.400 293.218 M247.200 294.018 C 246.762 294.315,246.924 294.352,247.800 294.156 C 249.271 293.827,249.590 293.598,248.567 293.606 C 248.145 293.609,247.530 293.795,247.200 294.018 M244.000 294.800 C 243.205 295.314,244.204 295.314,245.400 294.800 L 246.200 294.456 245.400 294.434 C 244.960 294.422,244.330 294.587,244.000 294.800 M241.000 295.600 C 240.496 295.817,240.422 295.944,240.800 295.944 C 241.130 295.944,241.760 295.789,242.200 295.600 C 242.704 295.383,242.778 295.256,242.400 295.256 C 242.070 295.256,241.440 295.411,241.000 295.600 M234.800 297.200 C 234.005 297.714,235.004 297.714,236.200 297.200 L 237.000 296.856 236.200 296.834 C 235.760 296.822,235.130 296.987,234.800 297.200 M231.800 298.000 C 231.296 298.217,231.222 298.344,231.600 298.344 C 231.930 298.344,232.560 298.189,233.000 298.000 C 233.504 297.783,233.578 297.656,233.200 297.656 C 232.870 297.656,232.240 297.811,231.800 298.000 M228.600 298.800 L 227.800 299.144 228.600 299.166 C 229.040 299.178,229.670 299.013,230.000 298.800 C 230.795 298.286,229.796 298.286,228.600 298.800 M225.600 299.600 C 225.067 299.945,225.067 299.988,225.600 299.988 C 225.930 299.988,226.470 299.813,226.800 299.600 C 227.333 299.255,227.333 299.212,226.800 299.212 C 226.470 299.212,225.930 299.387,225.600 299.600 M222.600 300.400 C 222.096 300.617,222.022 300.744,222.400 300.744 C 222.730 300.744,223.360 300.589,223.800 300.400 C 224.304 300.183,224.378 300.056,224.000 300.056 C 223.670 300.056,223.040 300.211,222.600 300.400 M219.400 301.200 L 218.600 301.544 219.400 301.566 C 219.840 301.578,220.470 301.413,220.800 301.200 C 221.595 300.686,220.596 300.686,219.400 301.200 M216.400 302.000 C 215.576 302.264,215.541 302.326,216.200 302.354 C 216.640 302.373,217.270 302.213,217.600 302.000 C 218.301 301.547,217.814 301.547,216.400 302.000 M213.200 302.800 C 212.396 303.057,212.357 303.123,213.000 303.132 C 213.440 303.138,214.160 302.989,214.600 302.800 C 215.619 302.362,214.568 302.362,213.200 302.800 M210.000 303.600 C 209.196 303.857,209.157 303.923,209.800 303.932 C 210.240 303.938,210.960 303.789,211.400 303.600 C 212.419 303.162,211.368 303.162,210.000 303.600 M206.200 304.575 C 205.100 304.863,203.684 305.219,203.053 305.368 C 202.422 305.517,201.980 305.714,202.072 305.805 C 202.270 306.003,208.388 304.546,208.710 304.224 C 209.030 303.904,208.471 303.982,206.200 304.575 " stroke="none" fill="#f49c9c" fill-rule="evenodd"></path><path id="path7" d="M115.301 134.600 C 115.305 135.480,115.387 135.793,115.483 135.295 C 115.579 134.798,115.575 134.078,115.475 133.695 C 115.375 133.313,115.296 133.720,115.301 134.600 M116.093 144.400 C 116.093 145.170,116.175 145.485,116.276 145.100 C 116.376 144.715,116.376 144.085,116.276 143.700 C 116.175 143.315,116.093 143.630,116.093 144.400 M151.701 154.600 C 151.705 155.480,151.787 155.793,151.883 155.295 C 151.979 154.798,151.975 154.078,151.875 153.695 C 151.775 153.313,151.696 153.720,151.701 154.600 M162.900 214.300 C 168.565 214.362,177.835 214.362,183.500 214.300 C 189.165 214.237,184.530 214.186,173.200 214.186 C 161.870 214.186,157.235 214.237,162.900 214.300 M133.100 229.500 C 137.995 229.563,146.005 229.563,150.900 229.500 C 155.795 229.436,151.790 229.384,142.000 229.384 C 132.210 229.384,128.205 229.436,133.100 229.500 " stroke="none" fill="#dc5c4c" fill-rule="evenodd"></path><path id="path8" d="M113.724 118.200 C 113.726 119.520,113.801 120.012,113.890 119.293 C 113.979 118.574,113.977 117.494,113.886 116.893 C 113.795 116.292,113.722 116.880,113.724 118.200 M114.520 128.000 C 114.520 129.210,114.595 129.705,114.687 129.100 C 114.778 128.495,114.778 127.505,114.687 126.900 C 114.595 126.295,114.520 126.790,114.520 128.000 M115.309 137.600 C 115.309 138.590,115.387 138.995,115.482 138.500 C 115.578 138.005,115.578 137.195,115.482 136.700 C 115.387 136.205,115.309 136.610,115.309 137.600 M163.300 143.500 C 170.065 143.561,181.135 143.561,187.900 143.500 C 194.665 143.438,189.130 143.388,175.600 143.388 C 162.070 143.388,156.535 143.438,163.300 143.500 M116.109 147.200 C 116.109 148.190,116.187 148.595,116.282 148.100 C 116.378 147.605,116.378 146.795,116.282 146.300 C 116.187 145.805,116.109 146.210,116.109 147.200 M151.720 151.200 C 151.720 152.410,151.795 152.905,151.887 152.300 C 151.978 151.695,151.978 150.705,151.887 150.100 C 151.795 149.495,151.720 149.990,151.720 151.200 M116.901 156.600 C 116.905 157.480,116.987 157.793,117.083 157.295 C 117.179 156.798,117.175 156.078,117.075 155.695 C 116.975 155.313,116.896 155.720,116.901 156.600 M152.528 162.000 C 152.528 163.430,152.601 164.015,152.689 163.300 C 152.778 162.585,152.778 161.415,152.689 160.700 C 152.601 159.985,152.528 160.570,152.528 162.000 M117.693 166.000 C 117.693 166.770,117.775 167.085,117.876 166.700 C 117.976 166.315,117.976 165.685,117.876 165.300 C 117.775 164.915,117.693 165.230,117.693 166.000 M153.331 173.000 C 153.333 174.540,153.405 175.121,153.492 174.291 C 153.579 173.461,153.577 172.201,153.489 171.491 C 153.400 170.781,153.329 171.460,153.331 173.000 M118.428 175.433 C 118.444 176.075,118.616 176.960,118.810 177.400 C 119.047 177.934,119.086 177.602,118.927 176.400 C 118.646 174.280,118.388 173.780,118.428 175.433 M119.206 184.633 C 119.209 185.275,119.384 186.070,119.595 186.400 C 119.855 186.809,119.899 186.490,119.732 185.400 C 119.429 183.423,119.198 183.086,119.206 184.633 M120.006 193.833 C 120.009 194.475,120.184 195.270,120.395 195.600 C 120.655 196.009,120.699 195.690,120.532 194.600 C 120.229 192.623,119.998 192.286,120.006 193.833 M120.806 203.233 C 120.809 203.765,120.989 204.470,121.206 204.800 C 121.482 205.222,121.523 204.985,121.342 204.000 C 121.025 202.275,120.798 201.949,120.806 203.233 M121.646 212.238 C 121.528 214.383,121.815 214.419,138.037 214.300 L 153.000 214.190 137.949 214.095 C 122.151 213.995,122.336 214.017,121.889 212.200 C 121.700 211.430,121.691 211.432,121.646 212.238 M123.200 230.510 C 123.200 231.083,123.387 231.668,123.616 231.810 C 123.889 231.979,123.938 231.677,123.760 230.934 C 123.392 229.401,123.200 229.256,123.200 230.510 M124.028 239.876 C 124.013 240.358,124.180 240.864,124.400 241.000 C 124.873 241.292,124.873 240.901,124.400 239.800 C 124.069 239.029,124.055 239.031,124.028 239.876 M127.693 278.800 C 127.693 279.570,127.775 279.885,127.876 279.500 C 127.976 279.115,127.976 278.485,127.876 278.100 C 127.775 277.715,127.693 278.030,127.693 278.800 " stroke="none" fill="#d45444" fill-rule="evenodd"></path></g></svg>